<svg preserveAspectRatio="none" width="100%" height="100%" overflow="visible" style="display: block;" viewBox="0 0 16 16" fill="none" xmlns="http://www.w3.org/2000/svg">
<g id="Icon">
<path id="Vector" d="M10.3333 5L11.8667 6.53333C11.9913 6.65548 12.1588 6.7239 12.3333 6.7239C12.5078 6.7239 12.6754 6.65548 12.8 6.53333L14.2 5.13333C14.3222 5.00871 14.3906 4.84117 14.3906 4.66667C14.3906 4.49216 14.3222 4.32462 14.2 4.2L12.6667 2.66667" stroke="var(--stroke-0, #0097A7)" stroke-width="1.33333" stroke-linecap="round" stroke-linejoin="round"/>
<path id="Vector_2" d="M14 1.33333L7.60002 7.73333" stroke="var(--stroke-0, #0097A7)" stroke-width="1.33333" stroke-linecap="round" stroke-linejoin="round"/>
<path id="Vector_3" d="M5 14C7.02504 14 8.66667 12.3584 8.66667 10.3333C8.66667 8.30829 7.02504 6.66667 5 6.66667C2.97496 6.66667 1.33333 8.30829 1.33333 10.3333C1.33333 12.3584 2.97496 14 5 14Z" stroke="var(--stroke-0, #0097A7)" stroke-width="1.33333" stroke-linecap="round" stroke-linejoin="round"/>
</g>
</svg>
