<svg preserveAspectRatio="none" width="100%" height="100%" overflow="visible" style="display: block;" viewBox="0 0 16 16" fill="none" xmlns="http://www.w3.org/2000/svg">
<g id="Icon" clip-path="url(#clip0_0_13)">
<path id="Vector" d="M9.69066 14.4574C9.71599 14.5205 9.76002 14.5744 9.81684 14.6117C9.87367 14.6491 9.94056 14.6682 10.0086 14.6665C10.0765 14.6647 10.1424 14.6422 10.1972 14.602C10.252 14.5618 10.2933 14.5057 10.3153 14.4414L14.6487 1.7747C14.67 1.71563 14.6741 1.65171 14.6604 1.59041C14.6467 1.52911 14.6159 1.47297 14.5715 1.42856C14.5271 1.38415 14.4709 1.3533 14.4096 1.33963C14.3483 1.32596 14.2844 1.33003 14.2253 1.35137L1.55866 5.6847C1.49432 5.70677 1.43828 5.74798 1.39804 5.80282C1.3578 5.85765 1.33531 5.92349 1.33356 5.99148C1.33182 6.05947 1.35092 6.12637 1.3883 6.18319C1.42567 6.24001 1.47954 6.28404 1.54266 6.30937L6.82933 8.42937C6.99645 8.49628 7.14829 8.59634 7.2757 8.72352C7.40311 8.8507 7.50345 9.00237 7.57066 9.16937L9.69066 14.4574Z" stroke="var(--stroke-0, white)" stroke-width="1.33333" stroke-linecap="round" stroke-linejoin="round"/>
<path id="Vector_2" d="M14.5693 1.43132L7.276 8.72398" stroke="var(--stroke-0, white)" stroke-width="1.33333" stroke-linecap="round" stroke-linejoin="round"/>
</g>
<defs>
<clipPath id="clip0_0_13">
<rect width="16" height="16" fill="white"/>
</clipPath>
</defs>
</svg>
