<svg preserveAspectRatio="none" width="100%" height="100%" overflow="visible" style="display: block;" viewBox="0 0 16 16" fill="none" xmlns="http://www.w3.org/2000/svg">
<g id="Group">
<path id="Vector" d="M1.13735 7.9998C1.13735 10.7163 2.71603 13.0639 5.00523 14.1763L1.48289 4.35262C1.2635 5.46288 1.13735 6.63072 1.13735 7.9998ZM12.6333 7.65349C12.6333 6.80532 12.3286 6.21793 12.0673 5.76075C11.7194 5.19543 11.3933 4.7167 11.3933 4.15138C11.3933 3.52051 11.8718 2.93326 12.5458 2.93326C12.5762 2.93326 12.605 2.93705 12.6347 2.93875C11.4137 1.82013 9.78696 1.13716 8.00026 1.13716C5.60267 1.13716 3.49329 2.36729 2.26615 4.23052C2.42717 4.23535 2.57891 4.23875 2.7078 4.23875C3.42564 4.23875 4.53681 4.15164 4.53681 4.15164C4.90677 4.12984 4.95038 4.67321 4.58082 4.71696C4.58082 4.71696 4.20904 4.76071 3.79534 4.78238L6.29452 12.2161L7.79641 7.71173L6.72716 4.78212C6.3576 4.76044 6.00749 4.7167 6.00749 4.7167C5.63767 4.69502 5.68102 4.12958 6.05085 4.15138C6.05085 4.15138 7.18422 4.23849 7.85857 4.23849C8.57628 4.23849 9.68758 4.15138 9.68758 4.15138C10.0578 4.12958 10.1013 4.67295 9.73159 4.7167C9.73159 4.7167 9.35903 4.76044 8.94611 4.78212L11.4262 12.1595L12.1108 9.87204C12.4075 9.62223 12.6333 8.5979 12.6333 7.65349ZM8.12066 8.60012L6.06156 14.5833C6.67636 14.764 7.32656 14.8628 8.00026 14.8628C8.79946 14.8628 9.56588 14.7247 10.2793 14.4738C10.2609 14.4444 10.2441 14.4132 10.2304 14.3793L8.12066 8.60012ZM14.0222 4.70717C14.0517 4.92577 14.0684 5.16044 14.0684 5.41286C14.0684 6.10929 13.9383 6.89216 13.5466 7.87104L11.4503 13.932C13.4906 12.7422 14.8629 10.5318 14.8629 7.99993C14.8629 6.85416 14.5582 5.70211 14.0222 4.70717Z" fill="var(--fill-0, #0073AA)"/>
<path id="Vector_2" d="M8.00007 0C3.58894 0 0 3.58868 0 7.9998C0 12.4114 3.58894 16 8.00007 16C12.4111 16 16.0005 12.4114 16.0005 7.9998C16.0004 3.58868 12.4111 0 8.00007 0ZM8.00007 15.6333C3.79122 15.6333 0.366821 12.2089 0.366821 7.9998C0.366821 3.79096 3.79109 0.366821 8.00007 0.366821C12.2088 0.366821 15.6329 3.79096 15.6329 7.9998C15.6329 12.2089 12.2088 15.6333 8.00007 15.6333Z" fill="var(--fill-0, #0073AA)"/>
</g>
</svg>
