<svg width="1080" height="1080" viewBox="0 0 1080 1080" fill="none" xmlns="http://www.w3.org/2000/svg">
<rect width="1080" height="1080" rx="54" fill="#1863DC"/>
<path d="M540.196 372.644C602.043 372.644 652.175 322.673 652.175 261.041V257.603C652.175 195.971 602.043 146 540.196 146C478.35 146 428.218 195.971 428.218 257.603V261.041C428.218 322.673 478.35 372.644 540.196 372.644Z" fill="white"/>
<path d="M405.447 630.775L217.061 813.789C199.974 830.338 199.598 857.634 216.255 874.668L261.39 920.878C277.94 937.803 305.075 938.179 322.054 921.684L515.706 733.512L405.447 630.722V630.775Z" fill="white"/>
<path d="M863.088 394.782C880.014 378.232 880.336 351.097 863.841 334.118L818.813 287.746C802.209 270.66 774.913 270.337 757.88 286.994L528.603 511.489L400.934 390.161C386.212 376.19 362.946 376.728 348.868 391.397L296.586 446.043C282.347 460.873 283.045 484.515 298.09 498.539L523.606 708.634C528.603 713.255 536.34 713.147 541.176 708.365L628.277 622.232L551.708 734.748L753.259 922.382C770.561 938.502 797.642 937.588 813.869 920.394L856.425 875.151C872.706 857.795 871.847 830.499 854.437 814.272L639.561 613.688L863.034 394.782H863.088Z" fill="white"/>
</svg>
